<svg width="334" height="115" viewBox="0 0 334 115" fill="none" xmlns="http://www.w3.org/2000/svg">
<g filter="url(#filter0_d_2119_25078)">
<path d="M1.33748 80.9908L5.08241 28.8293L32.0994 30.7686L34.975 81.2583L25.0777 81.1246L23.8071 58.1869L11.9704 57.2506L11.1679 81.2583L1.33748 80.9908ZM12.3717 48.2227L23.2052 50.4964L22.4027 38.5929L12.9066 36.3192L12.3717 48.2227Z" fill="white"/>
<path d="M69.1761 58.1887L57.6069 51.2338L55.4669 57.9881L70.7142 63.873L73.0547 83.1995L46.3721 81.5277L50.652 72.366L66.4342 74.3053L63.9599 68.6879L50.7858 65.0767L47.3752 54.5107L56.4032 43.5433L75.9303 51.9026L69.1761 58.1887Z" fill="white"/>
<path d="M97.1766 34.6491L97.3772 47.2214L105.736 47.5558L105.67 54.1763L97.0429 54.4438L96.8422 78.719L101.39 81.7283L101.122 87.8807L90.0211 85.3395L91.2917 54.9119L86.9449 54.7781L86.8112 47.3552L90.4892 47.2214L90.6899 37.4578L97.1766 34.6491Z" fill="white"/>
<path d="M132.817 46.484L146.927 57.8525L145.189 86.4745L120.98 81.0577L124.458 65.4093L140.574 60.6612L133.352 54.2413L125.595 60.6612L121.783 55.98L132.817 46.484ZM128.136 77.0453L138.969 79.7202L139.237 69.0204L129.273 70.6254L128.136 77.0453Z" fill="white"/>
<path d="M168.24 46.4189L169.979 54.845L177.201 48.3583L187.901 48.5589L188.77 60.0612L176.934 54.9119L172.453 64.0736L173.389 83.1326L166.033 88.0813L162.288 45.4158L168.24 46.4189Z" fill="white"/>
<path d="M197.519 32.1993L206.012 32.5336L206.279 39.1541L220.657 43.1666L223.8 72.9254L215.174 76.0016L213.702 50.3221L205.744 45.7747L204.139 70.9192L196.783 71.1198L197.251 39.1541L197.519 32.1993Z" fill="white"/>
<path d="M246.522 33.6723L260.633 45.0409L258.894 73.6628L234.686 68.2461L238.163 52.5976L254.28 47.8496L247.057 41.4297L239.3 47.8496L235.488 43.1684L246.522 33.6723ZM241.841 64.2336L252.675 66.9086L252.942 56.2088L242.978 57.8138L241.841 64.2336Z" fill="white"/>
<path d="M273.389 35.0132L282.082 34.8126L280.076 58.6197L286.563 62.0302L291.378 58.954L290.508 35.2807L298.734 38.2231L298.6 65.5745L288.836 68.8513L272.92 64.7052L273.389 35.0132Z" fill="white"/>
<path d="M319.781 22.6381L319.982 35.2104L328.341 35.5448L328.274 42.1653L319.647 42.4328L319.447 66.708L323.994 69.7173L323.727 75.8697L312.626 73.3285L313.896 42.9009L309.549 42.7672L309.416 35.3442L313.094 35.2104L313.294 25.4468L319.781 22.6381Z" fill="white"/>
</g>
<defs>
<filter id="filter0_d_2119_25078" x="1.33789" y="22.6382" width="331.78" height="70.2198" filterUnits="userSpaceOnUse" color-interpolation-filters="sRGB">
<feFlood flood-opacity="0" result="BackgroundImageFix"/>
<feColorMatrix in="SourceAlpha" type="matrix" values="0 0 0 0 0 0 0 0 0 0 0 0 0 0 0 0 0 0 127 0" result="hardAlpha"/>
<feOffset dx="4.7767" dy="4.7767"/>
<feComposite in2="hardAlpha" operator="out"/>
<feColorMatrix type="matrix" values="0 0 0 0 0 0 0 0 0 0 0 0 0 0 0 0 0 0 1 0"/>
<feBlend mode="normal" in2="BackgroundImageFix" result="effect1_dropShadow_2119_25078"/>
<feBlend mode="normal" in="SourceGraphic" in2="effect1_dropShadow_2119_25078" result="shape"/>
</filter>
</defs>
</svg>
